# xmcd
#
# Track frame offsets: 
#        182
#        9657
#        26262
#        44505
#        64360
#        88810
#        117957
#        147382
#        168460
#        187112
#
# Disc length: 2713 seconds
#
# Revision: 3
# Processed by: cddbd v1.5.2PL0 Copyright (c) Steve Scherf et al.
# Submitted via: ExactAudioCopy v1.3
#
DISCID=8e0a970a
DTITLE=Louis Tillett - Letters To A Dream
DYEAR=1992
DGENRE=Blues
TTITLE0=Entering The World Of Morpheus
TTITLE1=Ship Of Dreams
TTITLE2=Harpies Bizarre
TTITLE3=Cyren's Call
TTITLE4=The Tempest
TTITLE5=Dancing With The Devil, Parts I and II
TTITLE6=Pennelope's Lament
TTITLE7=Do Not Go Gentle Into That Good Night
TTITLE8=Work Song
TTITLE9=Daybreak's Reprieve
EXTD=
EXTT0=
EXTT1=
EXTT2=
EXTT3=
EXTT4=
EXTT5=
EXTT6=
EXTT7=
EXTT8=
EXTT9=
PLAYORDER=
